<mxfile host="app.diagrams.net" agent="Mozilla/5.0 (Windows NT 10.0; Win64; x64) AppleWebKit/537.36 (KHTML, like Gecko) Chrome/131.0.0.0 Safari/537.36" version="25.0.3">
  <diagram name="Page-1" id="TO-W_3yV0LNswjqVuOrI">
    <mxGraphModel dx="1050" dy="565" grid="1" gridSize="10" guides="1" tooltips="1" connect="1" arrows="1" fold="1" page="1" pageScale="1" pageWidth="827" pageHeight="1169" math="0" shadow="0">
      <root>
        <mxCell id="0" />
        <mxCell id="1" parent="0" />
        <mxCell id="3dbDN0amnoYCUHzCF-ee-1" value="non-serious" style="whiteSpace=wrap;html=1;aspect=fixed;" vertex="1" parent="1">
          <mxGeometry x="210" y="370" width="80" height="80" as="geometry" />
        </mxCell>
        <mxCell id="3dbDN0amnoYCUHzCF-ee-4" style="edgeStyle=orthogonalEdgeStyle;rounded=0;orthogonalLoop=1;jettySize=auto;html=1;" edge="1" parent="1" source="3dbDN0amnoYCUHzCF-ee-3">
          <mxGeometry relative="1" as="geometry">
            <mxPoint x="250" y="360" as="targetPoint" />
          </mxGeometry>
        </mxCell>
        <mxCell id="3dbDN0amnoYCUHzCF-ee-3" value="decision maker" style="whiteSpace=wrap;html=1;aspect=fixed;" vertex="1" parent="1">
          <mxGeometry x="340" y="250" width="80" height="80" as="geometry" />
        </mxCell>
        <mxCell id="3dbDN0amnoYCUHzCF-ee-8" value="" style="edgeStyle=orthogonalEdgeStyle;rounded=0;orthogonalLoop=1;jettySize=auto;html=1;" edge="1" parent="1" source="3dbDN0amnoYCUHzCF-ee-5" target="3dbDN0amnoYCUHzCF-ee-7">
          <mxGeometry relative="1" as="geometry" />
        </mxCell>
        <mxCell id="3dbDN0amnoYCUHzCF-ee-5" value="serious" style="whiteSpace=wrap;html=1;aspect=fixed;" vertex="1" parent="1">
          <mxGeometry x="430" y="370" width="80" height="80" as="geometry" />
        </mxCell>
        <mxCell id="3dbDN0amnoYCUHzCF-ee-6" style="edgeStyle=orthogonalEdgeStyle;rounded=0;orthogonalLoop=1;jettySize=auto;html=1;" edge="1" parent="1">
          <mxGeometry relative="1" as="geometry">
            <mxPoint x="470" y="360" as="targetPoint" />
            <mxPoint x="430" y="291" as="sourcePoint" />
          </mxGeometry>
        </mxCell>
        <mxCell id="3dbDN0amnoYCUHzCF-ee-10" value="" style="edgeStyle=orthogonalEdgeStyle;rounded=0;orthogonalLoop=1;jettySize=auto;html=1;" edge="1" parent="1" source="3dbDN0amnoYCUHzCF-ee-7" target="3dbDN0amnoYCUHzCF-ee-9">
          <mxGeometry relative="1" as="geometry" />
        </mxCell>
        <mxCell id="3dbDN0amnoYCUHzCF-ee-7" value="OCR" style="whiteSpace=wrap;html=1;aspect=fixed;" vertex="1" parent="1">
          <mxGeometry x="430" y="530" width="80" height="80" as="geometry" />
        </mxCell>
        <mxCell id="3dbDN0amnoYCUHzCF-ee-16" value="" style="edgeStyle=orthogonalEdgeStyle;rounded=0;orthogonalLoop=1;jettySize=auto;html=1;" edge="1" parent="1" source="3dbDN0amnoYCUHzCF-ee-9" target="3dbDN0amnoYCUHzCF-ee-15">
          <mxGeometry relative="1" as="geometry" />
        </mxCell>
        <mxCell id="3dbDN0amnoYCUHzCF-ee-9" value="&lt;div&gt;spelling-correction&lt;/div&gt;" style="whiteSpace=wrap;html=1;aspect=fixed;" vertex="1" parent="1">
          <mxGeometry x="280" y="670" width="80" height="80" as="geometry" />
        </mxCell>
        <mxCell id="3dbDN0amnoYCUHzCF-ee-14" value="english" style="rounded=0;whiteSpace=wrap;html=1;" vertex="1" parent="1">
          <mxGeometry x="350" y="550" width="40" height="40" as="geometry" />
        </mxCell>
        <mxCell id="3dbDN0amnoYCUHzCF-ee-15" value="similarity" style="whiteSpace=wrap;html=1;aspect=fixed;" vertex="1" parent="1">
          <mxGeometry x="280" y="830" width="80" height="80" as="geometry" />
        </mxCell>
        <mxCell id="3dbDN0amnoYCUHzCF-ee-19" value="" style="edgeStyle=orthogonalEdgeStyle;rounded=0;orthogonalLoop=1;jettySize=auto;html=1;exitX=1;exitY=0.5;exitDx=0;exitDy=0;" edge="1" parent="1" target="3dbDN0amnoYCUHzCF-ee-21" source="3dbDN0amnoYCUHzCF-ee-7">
          <mxGeometry relative="1" as="geometry">
            <mxPoint x="680" y="570" as="sourcePoint" />
          </mxGeometry>
        </mxCell>
        <mxCell id="3dbDN0amnoYCUHzCF-ee-21" value="&lt;div&gt;spelling-correction&lt;/div&gt;" style="whiteSpace=wrap;html=1;aspect=fixed;" vertex="1" parent="1">
          <mxGeometry x="610" y="660" width="80" height="80" as="geometry" />
        </mxCell>
        <mxCell id="3dbDN0amnoYCUHzCF-ee-22" value="arabic" style="rounded=0;whiteSpace=wrap;html=1;" vertex="1" parent="1">
          <mxGeometry x="580" y="550" width="40" height="40" as="geometry" />
        </mxCell>
        <mxCell id="3dbDN0amnoYCUHzCF-ee-24" value="medical-data" style="shape=process;whiteSpace=wrap;html=1;backgroundOutline=1;" vertex="1" parent="1">
          <mxGeometry x="170" y="620" width="120" height="60" as="geometry" />
        </mxCell>
      </root>
    </mxGraphModel>
  </diagram>
</mxfile>
